<svg width="16" height="22" viewBox="0 0 16 22" fill="none" xmlns="http://www.w3.org/2000/svg">
<path d="M11.62 1H4.38C2.78942 1 1.5 2.28942 1.5 3.88V18.12C1.5 19.7106 2.78942 21 4.38 21H11.62C13.2106 21 14.5 19.7106 14.5 18.12V3.88C14.5 2.28942 13.2106 1 11.62 1Z" stroke="#7F7F7F" stroke-width="1.5" stroke-linecap="round"/>
<path d="M8 5.5C8.55228 5.5 9 5.05228 9 4.5C9 3.94772 8.55228 3.5 8 3.5C7.44772 3.5 7 3.94772 7 4.5C7 5.05228 7.44772 5.5 8 5.5Z" fill="#7F7F7F"/>
<path d="M6.5498 17.3496H9.4398" stroke="#7F7F7F" stroke-width="1.5" stroke-linecap="round"/>
</svg>
