<svg width="20" height="16" viewBox="0 0 20 16" fill="none" xmlns="http://www.w3.org/2000/svg">
<path fill-rule="evenodd" clip-rule="evenodd" d="M6.65116 0H6.62047C5.60452 0 4.79941 0 4.15045 0.0521054C3.48683 0.10539 2.92532 0.216576 2.4126 0.473344C1.58119 0.88971 0.905228 1.55408 0.4816 2.37125C0.220354 2.87517 0.107228 3.42705 0.0530142 4.0793C0 4.71712 0 5.50843 0 6.50697V6.53714V9.46286V9.49303C0 10.4915 0 11.2828 0.0530142 11.9207C0.107228 12.573 0.220354 13.1248 0.4816 13.6288C0.905228 14.4459 1.58119 15.1103 2.4126 15.5267C2.92532 15.7834 3.48683 15.8946 4.15045 15.9479C4.7994 16 5.60451 16 6.62045 16H6.65116H13.3488H13.3795C14.3955 16 15.2006 16 15.8496 15.9479C16.5132 15.8946 17.0747 15.7834 17.5874 15.5267C18.4188 15.1103 19.0948 14.4459 19.5184 13.6288C19.7796 13.1248 19.8927 12.573 19.947 11.9207C20 11.2828 20 10.4916 20 9.49303V9.46286V6.53714V6.50697C20 5.50843 20 4.71712 19.947 4.0793C19.8927 3.42705 19.7796 2.87517 19.5184 2.37125C19.0948 1.55408 18.4188 0.88971 17.5874 0.473344C17.0747 0.216576 16.5132 0.10539 15.8496 0.0521054C15.2006 0 14.3954 0 13.3795 0H13.3488H6.65116ZM3.04607 1.6953C3.3293 1.55345 3.68674 1.46534 4.26407 1.41898C4.84955 1.37196 5.59769 1.37143 6.65116 1.37143H13.3488C14.4023 1.37143 15.1504 1.37196 15.7359 1.41898C16.3132 1.46534 16.6707 1.55345 16.954 1.6953C17.5228 1.98018 17.9853 2.43474 18.2752 2.99386C18.4194 3.27223 18.5091 3.62354 18.5563 4.19098C18.6041 4.76641 18.6047 5.50173 18.6047 6.53714V9.46286C18.6047 10.4983 18.6041 11.2336 18.5563 11.809C18.5091 12.3764 18.4194 12.7278 18.2752 13.0062C17.9853 13.5653 17.5228 14.0198 16.954 14.3047C16.6707 14.4465 16.3132 14.5347 15.7359 14.581C15.1504 14.628 14.4023 14.6286 13.3488 14.6286H6.65116C5.59769 14.6286 4.84955 14.628 4.26407 14.581C3.68674 14.5347 3.3293 14.4465 3.04607 14.3047C2.47721 14.0198 2.01472 13.5653 1.72487 13.0062C1.58055 12.7278 1.49089 12.3764 1.44373 11.809C1.39589 11.2336 1.39535 10.4983 1.39535 9.46286V6.53714C1.39535 5.50173 1.39589 4.76641 1.44373 4.19098C1.49089 3.62354 1.58055 3.27223 1.72487 2.99386C2.01472 2.43474 2.47721 1.98018 3.04607 1.6953ZM4.80561 3.77231C4.485 3.56224 4.05184 3.64739 3.8381 3.96249C3.62437 4.2776 3.71101 4.70333 4.0316 4.91341L9.61302 8.57051C9.84735 8.72411 10.1527 8.72411 10.387 8.57051L15.9684 4.91341C16.289 4.70333 16.3756 4.2776 16.1619 3.96249C15.9482 3.64739 15.515 3.56224 15.1944 3.77231L10 7.17586L4.80561 3.77231Z" fill="#7F7F7F"/>
</svg>
