<svg width="18" height="24" viewBox="0 0 18 24" fill="none" xmlns="http://www.w3.org/2000/svg">
<path fill-rule="evenodd" clip-rule="evenodd" d="M4.45968 5.83398H13.0403H13.0746C13.6778 5.83398 14.1811 5.83398 14.5924 5.86756C15.0213 5.90261 15.4239 5.97838 15.8048 6.17239C16.3889 6.47006 16.8639 6.94504 17.1616 7.52926C17.3556 7.91004 17.4314 8.31272 17.4665 8.74162C17.5 9.15284 17.5 9.65621 17.5 10.2593V10.2937C17.4675 15.5015 17.446 18.1692 17.4356 18.2966C17.3698 19.102 17.2325 19.7835 16.9155 20.4058C16.4013 21.4149 15.5809 22.2353 14.5719 22.7495C13.9495 23.0665 13.268 23.2038 12.4626 23.2696C11.675 23.334 10.6978 23.334 9.46479 23.334H9.42742H8.07258H8.03532C6.80223 23.334 5.82507 23.334 5.03745 23.2696C4.23201 23.2038 3.55049 23.0665 2.9282 22.7495C1.91911 22.2353 1.09868 21.4149 0.584523 20.4058C0.267446 19.7835 0.130155 19.102 0.064344 18.2966C0 17.5089 0 16.5317 0 15.2987V15.2614V10.2937V10.2593C0 9.65622 0 9.15285 0.0335778 8.74162C0.068623 8.31272 0.144392 7.91004 0.338405 7.52926C0.636075 6.94504 1.11106 6.47007 1.69528 6.17239C2.07605 5.97838 2.47872 5.90261 2.90763 5.86756C3.31885 5.83398 3.82219 5.83398 4.42524 5.83398H4.45968ZM15.8065 11.1945V11.1969V11.1992V15.2614C15.8065 16.54 15.8058 17.448 15.7477 18.1586C15.6905 18.8593 15.5817 19.2932 15.4065 19.637C15.0547 20.3274 14.4934 20.8887 13.803 21.2405C13.4592 21.4156 13.0253 21.5245 12.3246 21.5817C11.614 21.6398 10.706 21.6404 9.42742 21.6404H8.07258C6.79397 21.6404 5.88595 21.6398 5.17535 21.5817C4.47465 21.5245 4.04082 21.4156 3.69705 21.2405C3.00662 20.8887 2.44528 20.3274 2.09349 19.637C1.91833 19.2932 1.80952 18.8593 1.75227 18.1586C1.6942 17.448 1.69355 16.54 1.69355 15.2614V10.2937C1.69355 9.64737 1.6942 9.21358 1.7215 8.87953C1.74799 8.55536 1.79527 8.40037 1.84737 8.29811C1.98267 8.03256 2.19858 7.81667 2.46412 7.68135C2.56637 7.62926 2.72136 7.58197 3.04554 7.55549C3.3796 7.5282 3.81339 7.52753 4.45968 7.52753H13.0403C13.6866 7.52753 14.1204 7.52819 14.4544 7.55549C14.7786 7.58197 14.9336 7.62926 15.0359 7.68135C15.3014 7.81666 15.5173 8.03256 15.6527 8.29811C15.7047 8.40035 15.752 8.55535 15.7785 8.87953C15.8058 9.21358 15.8065 9.64737 15.8065 10.2937V11.1945Z" fill="#7F7F7F"/>
<path d="M11.1804 10.9863L6.31934 15.8474" stroke="#7F7F7F" stroke-width="1.16667" stroke-linecap="round"/>
<path d="M5.83366 12.8333C6.47799 12.8333 7.00033 12.311 7.00033 11.6667C7.00033 11.0223 6.47799 10.5 5.83366 10.5C5.18933 10.5 4.66699 11.0223 4.66699 11.6667C4.66699 12.311 5.18933 12.8333 5.83366 12.8333Z" stroke="#7F7F7F" stroke-width="1.05" stroke-linecap="round"/>
<path d="M10.4997 16.3333C11.144 16.3333 11.6663 15.811 11.6663 15.1667C11.6663 14.5223 11.144 14 10.4997 14C9.85534 14 9.33301 14.5223 9.33301 15.1667C9.33301 15.811 9.85534 16.3333 10.4997 16.3333Z" stroke="#7F7F7F" stroke-width="1.05" stroke-linecap="round"/>
<path d="M9.9421 4.66055C9.80895 4.66055 9.67579 4.61159 9.54263 4.51366C9.23193 4.26886 9.18754 3.82821 9.40947 3.48549L10.6523 1.67394L8.21105 1.96771C8.16667 1.96771 8.12228 1.96771 8.07789 1.96771L5.63667 1.67394L6.87948 3.48549C7.1014 3.82821 7.05702 4.26886 6.74632 4.51366C6.43562 4.75847 6.03614 4.70951 5.81421 4.36678L3.6393 1.18434C3.46176 0.939532 3.46176 0.645768 3.59492 0.400964C3.72807 0.15616 3.99439 0.00927808 4.26071 0.00927808L8.16667 0.498885L12.0726 0.00927808C12.3389 -0.0396826 12.6053 0.1072 12.7384 0.400964C12.8716 0.694728 12.8716 0.988493 12.694 1.18434L10.5191 4.36678C10.3416 4.56263 10.1196 4.66055 9.9421 4.66055Z" fill="#7F7F7F"/>
</svg>
